<svg width="85" height="86" viewBox="0 0 85 86" fill="none" xmlns="http://www.w3.org/2000/svg">
<path d="M42.5 0.5C19 0.5 0 19.5 0 43C0 66.5 19 85.5 42.5 85.5C66 85.5 85 66.5 85 43C85 19.6 66 0.5 42.5 0.5ZM40.3 18H44.6C45.1 18 45.5 18.4 45.5 18.9L44.9 53.4C44.9 53.9 44.5 54.3 44 54.3H41C40.5 54.3 40.1 53.9 40.1 53.4L39.4 18.9C39.4 18.4 39.8 18 40.3 18ZM45.2 68.1C44.4 68.9 43.5 69.2 42.5 69.2C41.5 69.2 40.6 68.9 39.9 68.2C39.1 67.5 38.6 66.4 38.6 65.3C38.6 64.3 39 63.4 39.7 62.6C40.4 61.8 41.5 61.4 42.6 61.4C43.8 61.4 44.8 61.9 45.6 62.8C46.1 63.4 46.4 64.1 46.5 64.9C46.5 66.2 46.1 67.2 45.2 68.1Z" fill="white"/>
</svg>
